<svg xmlns="http://www.w3.org/2000/svg" viewBox="0 0 32 32"><defs><style>.cls-1{fill:#a0a0a0;}.cls-2{fill:#080807;}.cls-3{fill:#f4f242;}</style></defs><title>fav</title><g id="Слой_3" data-name="Слой 3"><rect class="cls-1" y="5.5" width="32" height="20.81"/></g><g id="KVANDO_" data-name="KVANDO"><path class="cls-2" d="M1.88,23.68V7.91H5.06v7l6.43-7h4.28L9.84,14.05l6.26,9.63H12l-4.34-7.4L5.06,18.91v4.77Z"/><path class="cls-3" d="M17.77,7.91h5.82a11.37,11.37,0,0,1,3,.3A5.28,5.28,0,0,1,29,9.66a6.89,6.89,0,0,1,1.51,2.56A11.64,11.64,0,0,1,31,15.95a10.37,10.37,0,0,1-.48,3.36,7,7,0,0,1-1.69,2.79,5.6,5.6,0,0,1-2.24,1.26,9.64,9.64,0,0,1-2.82.33h-6ZM21,10.58V21h2.38a8.67,8.67,0,0,0,1.93-.15,2.94,2.94,0,0,0,1.29-.66,3.34,3.34,0,0,0,.83-1.52,10.29,10.29,0,0,0,.32-2.89A9.42,9.42,0,0,0,27.38,13a3.61,3.61,0,0,0-.9-1.53A3,3,0,0,0,25,10.73a14.45,14.45,0,0,0-2.61-.15Z"/></g></svg>