<svg id="KVANDO_" data-name="KVANDO" xmlns="http://www.w3.org/2000/svg" viewBox="0 0 537 135"><defs><style>.cls-1{fill:#080807;}.cls-2{fill:#f4f242;}</style></defs><title>Artboard 1</title><path class="cls-1" d="M26.89,111.05V25.87h17.2V63.69L78.84,25.87H102L69.89,59l33.82,52H81.46L58,71.07,44.09,85.31v25.74Z"/><path class="cls-1" d="M134.33,111.05,103.88,25.87h18.65l21.56,63,20.86-63H183.2l-30.5,85.18Z"/><path class="cls-1" d="M260,111.05H241.25L233.81,91.7h-34l-7,19.35H174.48l33.18-85.18h18.19Zm-31.67-33.7L216.55,45.74,205,77.35Z"/><path class="cls-1" d="M269.25,111.05V25.87H286l34.86,56.89V25.87h16v85.18H319.57L285.23,55.5v55.55Z"/><path class="cls-2" d="M355,25.87h31.44q10.63,0,16.21,1.63a28.5,28.5,0,0,1,12.84,7.84,37.22,37.22,0,0,1,8.13,13.8q2.79,8.16,2.79,20.13a56,56,0,0,1-2.62,18.13,37.56,37.56,0,0,1-9.12,15,30.24,30.24,0,0,1-12.09,6.8q-5.7,1.8-15.22,1.8H355Zm17.2,14.41V96.7H385a46.81,46.81,0,0,0,10.4-.81,15.88,15.88,0,0,0,6.94-3.54q2.76-2.5,4.5-8.22t1.74-15.6q0-9.88-1.74-15.17A19.5,19.5,0,0,0,402,45.1a16.37,16.37,0,0,0-8-4q-3.6-.81-14.12-.81Z"/><path class="cls-2" d="M437.47,69q0-13,3.89-21.85a40.09,40.09,0,0,1,7.93-11.68,33.16,33.16,0,0,1,11-7.67,46.77,46.77,0,0,1,18.36-3.37q18.83,0,30.13,11.68t11.3,32.48q0,20.63-11.21,32.28t-30,11.65q-19,0-30.21-11.59T437.47,69Zm17.72-.58q0,14.47,6.68,21.93a23,23,0,0,0,33.85.06q6.59-7.41,6.59-22.23,0-14.64-6.42-21.85t-17.05-7.21q-10.63,0-17.14,7.29T455.19,68.4Z"/></svg>